<?xml version="1.0" encoding="UTF-8" standalone="no"?>
<svg
   xmlns:dc="http://purl.org/dc/elements/1.1/"
   xmlns:cc="http://creativecommons.org/ns#"
   xmlns:rdf="http://www.w3.org/1999/02/22-rdf-syntax-ns#"
   xmlns:svg="http://www.w3.org/2000/svg"
   xmlns="http://www.w3.org/2000/svg"
   xmlns:sodipodi="http://sodipodi.sourceforge.net/DTD/sodipodi-0.dtd"
   xmlns:inkscape="http://www.inkscape.org/namespaces/inkscape"
   width="600"
   height="600"
   viewBox="0 0 158.75 158.75"
   version="1.1"
   id="svg67"
   inkscape:version="1.0.1 (c497b03c, 2020-09-10)"
   sodipodi:docname="drawing-1.svg">
  <defs
     id="defs61" />
  <sodipodi:namedview
     id="base"
     pagecolor="#ffffff"
     bordercolor="#666666"
     borderopacity="1.0"
     inkscape:pageopacity="0.0"
     inkscape:pageshadow="2"
     inkscape:zoom="0.35"
     inkscape:cx="400"
     inkscape:cy="560"
     inkscape:document-units="mm"
     inkscape:current-layer="layer1"
     inkscape:document-rotation="0"
     showgrid="false"
     units="px"
     inkscape:window-width="1252"
     inkscape:window-height="803"
     inkscape:window-x="0"
     inkscape:window-y="23"
     inkscape:window-maximized="0" />
  <metadata
     id="metadata64">
    <rdf:RDF>
      <cc:Work
         rdf:about="">
        <dc:format>image/svg+xml</dc:format>
        <dc:type
           rdf:resource="http://purl.org/dc/dcmitype/StillImage" />
        <dc:title></dc:title>
      </cc:Work>
    </rdf:RDF>
  </metadata>
  <g
     inkscape:label="Layer 1"
     inkscape:groupmode="layer"
     id="layer1">
    <g
       aria-label="MOVING
HOUSE"
       id="text89"
       style="font-style:normal;font-weight:normal;font-size:35.2778px;line-height:1.25;font-family:sans-serif;text-align:center;text-anchor:middle;fill:#000000;fill-opacity:1;stroke:none;stroke-width:0.264583">
      <path
         d="M 30.439353,64.255951 H 27.028706 V 42.155649 L 19.897354,57.1935 H 17.864746 L 10.78507,42.155649 V 64.255951 H 7.5983548 V 38.607198 h 4.6508822 l 6.838519,14.27993 6.614588,-14.27993 h 4.737009 z"
         style="font-size:35.2778px;text-align:center;text-anchor:middle;stroke-width:0.264583"
         id="path97" />
      <path
         d="m 56.484292,41.552756 q 1.567519,1.722549 2.394343,4.220245 0.844049,2.497696 0.844049,5.667186 0,3.16949 -0.861275,5.684411 -0.844049,2.497696 -2.377117,4.168569 -1.584745,1.739774 -3.755157,2.618274 -2.153186,0.8785 -4.92649,0.8785 -2.704402,0 -4.92649,-0.895725 -2.204862,-0.895726 -3.755156,-2.601049 -1.550294,-1.705324 -2.394343,-4.185794 -0.826824,-2.48047 -0.826824,-5.667186 0,-3.135039 0.826824,-5.615509 0.826823,-2.497696 2.411568,-4.271922 1.515843,-1.688098 3.755157,-2.583823 2.256539,-0.895725 4.909264,-0.895725 2.756079,0 4.943716,0.912951 2.204862,0.895725 3.737931,2.566597 z m -0.310059,9.887431 q 0,-4.995392 -2.239314,-7.699793 -2.239313,-2.721628 -6.115048,-2.721628 -3.910186,0 -6.1495,2.721628 -2.222088,2.704401 -2.222088,7.699793 0,5.047068 2.273765,7.734245 2.273764,2.66995 6.097823,2.66995 3.824058,0 6.080597,-2.66995 2.273765,-2.687177 2.273765,-7.734245 z"
         style="font-size:35.2778px;text-align:center;text-anchor:middle;stroke-width:0.264583"
         id="path99" />
      <path
         d="M 85.354213,38.607198 76.017998,64.255951 H 71.470469 L 62.134254,38.607198 h 3.651804 l 8.044303,22.56539 8.044304,-22.56539 z"
         style="font-size:35.2778px;text-align:center;text-anchor:middle;stroke-width:0.264583"
         id="path101" />
      <path
         d="M 98.290556,64.255951 H 88.161968 v -2.618274 h 3.35897 V 41.225472 h -3.35897 v -2.618274 h 10.128588 v 2.618274 h -3.358971 v 20.412205 h 3.358971 z"
         style="font-size:35.2778px;text-align:center;text-anchor:middle;stroke-width:0.264583"
         id="path103" />
      <path
         d="M 123.69815,64.255951 H 119.4779 L 107.31671,41.3116 v 22.944351 h -3.18672 V 38.607198 h 5.28823 l 11.09321,20.946194 V 38.607198 h 3.18672 z"
         style="font-size:35.2778px;text-align:center;text-anchor:middle;stroke-width:0.264583"
         id="path105" />
      <path
         d="m 151.9135,62.361147 q -2.10151,0.964628 -4.5992,1.688098 -2.48047,0.706245 -4.80592,0.706245 -2.99723,0 -5.49493,-0.826823 -2.49769,-0.826824 -4.25469,-2.480471 -1.77423,-1.670872 -2.73886,-4.168568 -0.96462,-2.514922 -0.96462,-5.873892 0,-6.149499 3.5829,-9.69795 3.60013,-3.565676 9.8702,-3.565676 2.18764,0 4.46141,0.53399 2.29099,0.516764 4.92649,1.774225 v 4.04799 h -0.31006 q -0.53399,-0.413412 -1.5503,-1.085206 -1.0163,-0.671794 -1.99815,-1.119657 -1.18856,-0.53399 -2.70441,-0.8785 -1.49861,-0.361735 -3.41064,-0.361735 -4.30637,0 -6.8213,2.773304 -2.49769,2.756078 -2.49769,7.475862 0,4.978167 2.61827,7.75147 2.61828,2.756078 7.13135,2.756078 1.65365,0 3.29007,-0.327284 1.65365,-0.327284 2.89389,-0.844049 v -6.287303 h -6.87297 V 51.35406 h 10.24916 z"
         style="font-size:35.2778px;text-align:center;text-anchor:middle;stroke-width:0.264583"
         id="path107" />
      <path
         d="M 39.069323,108.3532 H 35.658676 V 95.795821 H 22.860138 V 108.3532 H 19.449491 V 82.70445 h 3.410647 V 92.764135 H 35.658676 V 82.70445 h 3.410647 z"
         style="font-size:35.2778px;text-align:center;text-anchor:middle;stroke-width:0.264583"
         id="path109" />
      <path
         d="m 65.097036,85.650008 q 1.56752,1.722549 2.394343,4.220245 0.844049,2.497696 0.844049,5.667186 0,3.16949 -0.861274,5.684411 -0.844049,2.4977 -2.377118,4.16857 -1.584745,1.73977 -3.755156,2.61827 -2.153186,0.8785 -4.92649,0.8785 -2.704402,0 -4.92649,-0.89572 -2.204863,-0.89573 -3.755157,-2.60105 -1.550294,-1.70532 -2.394343,-4.1858 -0.826823,-2.480466 -0.826823,-5.667181 0,-3.135039 0.826823,-5.615509 0.826824,-2.497696 2.411569,-4.271922 1.515843,-1.688098 3.755156,-2.583823 2.25654,-0.895725 4.909265,-0.895725 2.756078,0 4.943715,0.91295 2.204863,0.895726 3.737931,2.566598 z m -0.310059,9.887431 q 0,-4.995392 -2.239313,-7.699794 -2.239314,-2.721627 -6.115049,-2.721627 -3.910186,0 -6.149499,2.721627 -2.222088,2.704402 -2.222088,7.699794 0,5.047071 2.273764,7.734241 2.273765,2.66995 6.097823,2.66995 3.824059,0 6.080598,-2.66995 2.273764,-2.68717 2.273764,-7.734241 z"
         style="font-size:35.2778px;text-align:center;text-anchor:middle;stroke-width:0.264583"
         id="path111" />
      <path
         d="m 93.054003,98.05236 q 0,2.79053 -0.620117,4.87481 -0.602892,2.06706 -1.998157,3.4451 -1.326363,1.30914 -3.100588,1.91203 -1.774225,0.60289 -4.134117,0.60289 -2.411569,0 -4.20302,-0.63734 -1.791451,-0.63734 -3.01446,-1.87758 -1.395265,-1.41249 -2.015383,-3.41065 -0.602892,-1.99815 -0.602892,-4.90926 V 82.70445 h 3.410647 v 15.520165 q 0,2.084285 0.275608,3.290065 0.292833,1.20579 0.964627,2.18764 0.757922,1.11966 2.049834,1.6881 1.309137,0.56844 3.135039,0.56844 1.843127,0 3.135039,-0.55122 1.291911,-0.56844 2.067058,-1.70532 0.671794,-0.98185 0.947402,-2.23931 0.292833,-1.27469 0.292833,-3.152267 V 82.70445 h 3.410647 z"
         style="font-size:35.2778px;text-align:center;text-anchor:middle;stroke-width:0.264583"
         id="path113" />
      <path
         d="m 118.22044,101.03237 q 0,1.49862 -0.70624,2.96278 -0.68902,1.46417 -1.94648,2.48047 -1.37804,1.10244 -3.22117,1.72255 -1.8259,0.62012 -4.40972,0.62012 -2.77331,0 -4.9954,-0.51676 -2.20486,-0.51677 -4.495848,-1.53307 v -4.27192 h 0.241157 q 1.946481,1.61919 4.495851,2.49769 2.54937,0.8785 4.78869,0.8785 3.16949,0 4.92649,-1.18856 1.77422,-1.18856 1.77422,-3.16949 0,-1.70532 -0.84405,-2.514918 -0.82682,-0.809598 -2.53214,-1.25746 -1.29192,-0.34451 -2.80776,-0.568442 -1.49862,-0.223931 -3.18671,-0.568441 -3.41065,-0.72347 -5.0643,-2.463245 -1.636419,-1.757 -1.636419,-4.564754 0,-3.221167 2.721629,-5.271 2.72163,-2.067059 6.90742,-2.067059 2.7044,0 4.96094,0.516765 2.25654,0.516765 3.99631,1.274686 v 4.030765 h -0.24115 q -1.46417,-1.240235 -3.85851,-2.049833 -2.37712,-0.826824 -4.87482,-0.826824 -2.73885,0 -4.40972,1.136882 -1.65365,1.136883 -1.65365,2.928333 0,1.601971 0.82683,2.514922 0.82682,0.912951 2.9111,1.395265 1.10243,0.241156 3.13504,0.585666 2.03261,0.34451 3.4451,0.706245 2.85943,0.757922 4.30637,2.29099 1.44694,1.533069 1.44694,4.289147 z"
         style="font-size:35.2778px;text-align:center;text-anchor:middle;stroke-width:0.264583"
         id="path115" />
      <path
         d="m 140.59635,108.3532 h -16.8982 V 82.70445 h 16.8982 v 3.031686 H 127.1088 v 7.027999 h 13.48755 v 3.031686 H 127.1088 v 9.525699 h 13.48755 z"
         style="font-size:35.2778px;text-align:center;text-anchor:middle;stroke-width:0.264583"
         id="path117" />
    </g>
  </g>
</svg>
